<svg xmlns="http://www.w3.org/2000/svg" xmlns:xlink="http://www.w3.org/1999/xlink" viewBox="0 0 548 364.13"><defs><style>.a{fill:url(#a);}.b{fill:#fff;}</style><linearGradient id="a" x1="443.25" y1="433.88" x2="106.25" y2="96.88" gradientUnits="userSpaceOnUse"><stop offset="0" stop-color="#662d91"/><stop offset="1" stop-color="#93278f"/></linearGradient></defs><title>larslgo</title><path d="M286.27,323.5h9.38V467.69H382v8.11H286.27Z" transform="translate(-232 -319.87)"/><path d="M448.38,323.5l60.15,152.3h-10L479.3,427H406.35L386.94,475.8h-10l61.22-152.3Zm27.94,95.35-32.64-86.18h-.42l-33.92,86.18Z" transform="translate(-232 -319.87)"/><path d="M519.4,323.5H583c26.67,0,48.21,9.81,48.21,39.25,0,20.47-12.37,35.62-32.63,39v.43c22.61,2.56,28.15,16.85,29.64,32.63s-1.06,32.85,5.12,41H622.85c-5.76-10.45-2.34-27.95-4.05-42.66-1.92-14.72-9.17-26.67-35.84-26.67H528.79V475.8H519.4ZM583,398.37c22.19,0,38.83-10.45,38.83-35,0-23-18.35-31.79-38.83-31.79H528.79v66.77Z" transform="translate(-232 -319.87)"/><path d="M753.18,367c-1.07-26-20.69-39-48.85-39-17.28,0-41.81,7.25-41.81,32.42,0,24.53,26,28.58,51.83,33.92,26,5.33,52,11.94,52,42.23,0,31.57-30.29,42.87-53.54,42.87-35.62,0-64.63-14.71-64.2-54H658c-1.92,33.27,24.75,45.86,54.82,45.86,18.35,0,44.16-8.32,44.16-34.77,0-25.81-26-30.29-52-35.62-25.81-5.33-51.83-11.52-51.83-40.53,0-29.22,27.09-40.53,51.19-40.53,31.78,0,56.74,13.65,58.23,47.14Z" transform="translate(-232 -319.87)"/><polygon class="a" points="513 364.13 0 364.13 38 165.13 548 165.13 513 364.13"/><path class="b" d="M321.63,505.31V564h61.9V505.31h33.63V658.25H383.53v-66h-61.9v66H288V505.31Z" transform="translate(-232 -319.87)"/><path class="b" d="M559.18,646.58q-17.35,15.09-48,15.1-31.06,0-48.09-15t-17-46.26V505.31h33.63v95.11a69.73,69.73,0,0,0,1.07,12.21,23.74,23.74,0,0,0,14,18.09q6.1,2.89,16.39,2.9,18,0,24.85-8t6.85-25.16V505.31h33.63v95.11Q576.53,631.47,559.18,646.58Z" transform="translate(-232 -319.87)"/><path class="b" d="M677.42,505.31a95,95,0,0,1,19.92,1.93,42.81,42.81,0,0,1,15.42,6.32,29.27,29.27,0,0,1,10,11.67q3.54,7.29,3.54,18,0,11.56-5.25,19.28t-15.53,12.64q14.14,4.07,21.1,14.24t7,24.53q0,11.57-4.5,20a38.93,38.93,0,0,1-12.1,13.81,53.26,53.26,0,0,1-17.35,7.93,78.36,78.36,0,0,1-20,2.57H605.45V505.31Zm-4.28,61.9q9,0,14.78-4.28T693.7,549a17.77,17.77,0,0,0-1.93-8.79,14.22,14.22,0,0,0-5.14-5.35,21.52,21.52,0,0,0-7.39-2.68,49,49,0,0,0-8.67-.75H639.08v35.77Zm1.92,64.91a44.41,44.41,0,0,0,9.43-1,23.12,23.12,0,0,0,7.93-3.21,16.18,16.18,0,0,0,5.46-6.11,21.09,21.09,0,0,0,2-9.85q0-11.78-6.64-16.81t-17.56-5H639.08v42Z" transform="translate(-232 -319.87)"/></svg>